# xmcd
#
# Track frame offsets: 
#        150
#        13258
#        23653
#        34434
#        44018
#        54333
#        64320
#        75695
#        94885
#        116759
#        132990
#
# Disc length: 1990 seconds
#
# Revision: 0
# Processed by: cddbd v1.5.2PL0 Copyright (c) Steve Scherf et al.
# Submitted via: ExactAudioCopy v1.0b1
#
DISCID=9a07c40b
DTITLE=Various Artist - The Woodstock Experience CD 5
DYEAR=1900
DGENRE=
TTITLE0=Sly and The Family Stone - In The Still Of The Night
TTITLE1=Sly and The Family Stone - Ain't That Lovin' You
TTITLE2=Sly and The Family Stone - Swim (Pt. 2)
TTITLE3=Sly and The Family Stone - Suki Suki
TTITLE4=Sly and The Family Stone - Seventh Son
TTITLE5=Sly and The Family Stone - Swim
TTITLE6=Sly and The Family Stone - Searchin'
TTITLE7=Johnny Winter - Gangster Of Love
TTITLE8=Blood, Sweat And Tears - Back Up Against The Wall
TTITLE9=Flamin' Groovies - Teenage Head
TTITLE10=Flamin' Groovies - In The USA
EXTD=
EXTT0=
EXTT1=
EXTT2=
EXTT3=
EXTT4=
EXTT5=
EXTT6=
EXTT7=
EXTT8=
EXTT9=
EXTT10=
PLAYORDER=
